<svg xmlns="http://www.w3.org/2000/svg" xmlns:xlink="http://www.w3.org/1999/xlink" width="1080" zoomAndPan="magnify" viewBox="0 0 810 809.999993" height="1080" preserveAspectRatio="xMidYMid meet" version="1.0"><defs><clipPath id="2d6302968a"><path d="M 157.882812 157.859375 L 652.132812 157.859375 L 652.132812 652.109375 L 157.882812 652.109375 Z M 157.882812 157.859375 " clip-rule="nonzero"/></clipPath><clipPath id="284da7702f"><path d="M 203 157.882812 L 607 157.882812 L 607 173 L 203 173 Z M 203 157.882812 " clip-rule="nonzero"/></clipPath><clipPath id="643af189e5"><path d="M 203 637 L 607 637 L 607 652.132812 L 203 652.132812 Z M 203 637 " clip-rule="nonzero"/></clipPath><clipPath id="753e5c8aac"><path d="M 157.859375 203 L 173 203 L 173 607 L 157.859375 607 Z M 157.859375 203 " clip-rule="nonzero"/></clipPath><clipPath id="51abf7d67a"><path d="M 637 203 L 652.109375 203 L 652.109375 607 L 637 607 Z M 637 203 " clip-rule="nonzero"/></clipPath><clipPath id="e4a02ae0d0"><path d="M 157.859375 157.882812 L 204 157.882812 L 204 204 L 157.859375 204 Z M 157.859375 157.882812 " clip-rule="nonzero"/></clipPath><clipPath id="55533172a0"><path d="M 157.859375 606 L 204 606 L 204 652.132812 L 157.859375 652.132812 Z M 157.859375 606 " clip-rule="nonzero"/></clipPath><clipPath id="82b3d0d996"><path d="M 606 157.882812 L 652.109375 157.882812 L 652.109375 204 L 606 204 Z M 606 157.882812 " clip-rule="nonzero"/></clipPath><clipPath id="69f81eb460"><path d="M 606 606 L 652.109375 606 L 652.109375 652.132812 L 606 652.132812 Z M 606 606 " clip-rule="nonzero"/></clipPath><clipPath id="337ea8b0c9"><path d="M 215.988281 296.855469 L 593.988281 296.855469 L 593.988281 624.605469 L 215.988281 624.605469 Z M 215.988281 296.855469 " clip-rule="nonzero"/></clipPath></defs><rect x="-81" width="972" fill="#ffffff" y="-80.999999" height="971.999992" fill-opacity="1"/><rect x="-81" width="972" fill="#1d232a" y="-80.999999" height="971.999992" fill-opacity="1"/><g clip-path="url(#2d6302968a)"><path fill="#f5fff9" d="M 157.859375 404.996094 C 157.859375 268.460938 269.226562 157.859375 404.996094 157.859375 C 540.769531 157.859375 652.132812 268.460938 652.132812 404.996094 C 652.132812 541.53125 541.53125 652.132812 404.996094 652.132812 C 268.460938 652.132812 157.859375 540.769531 157.859375 404.996094 Z M 636.878906 404.996094 C 636.878906 276.851562 533.140625 173.117188 404.996094 173.117188 C 276.851562 173.117188 173.117188 276.851562 173.117188 404.996094 C 173.117188 533.140625 276.851562 636.878906 404.996094 636.878906 C 533.140625 636.878906 636.878906 532.378906 636.878906 404.996094 Z M 636.878906 404.996094 " fill-opacity="1" fill-rule="nonzero"/></g><g clip-path="url(#284da7702f)"><path fill="#ffffff" d="M 203.152344 172.652344 L 203.152344 157.882812 L 606.820312 157.882812 L 606.820312 172.652344 Z M 203.152344 172.652344 " fill-opacity="1" fill-rule="nonzero"/></g><g clip-path="url(#643af189e5)"><path fill="#ffffff" d="M 203.152344 652.132812 L 203.152344 637.367188 L 606.820312 637.367188 L 606.820312 652.132812 Z M 203.152344 652.132812 " fill-opacity="1" fill-rule="nonzero"/></g><g clip-path="url(#753e5c8aac)"><path fill="#ffffff" d="M 157.859375 606.84375 L 157.859375 203.175781 L 172.628906 203.175781 L 172.628906 606.84375 Z M 157.859375 606.84375 " fill-opacity="1" fill-rule="nonzero"/></g><g clip-path="url(#51abf7d67a)"><path fill="#ffffff" d="M 637.34375 606.84375 L 637.34375 203.175781 L 652.109375 203.175781 L 652.109375 606.84375 Z M 637.34375 606.84375 " fill-opacity="1" fill-rule="nonzero"/></g><g clip-path="url(#e4a02ae0d0)"><path fill="#ffffff" d="M 172.628906 172.652344 L 203.152344 172.652344 L 203.152344 157.882812 L 157.859375 157.882812 L 157.859375 203.175781 L 172.628906 203.175781 Z M 172.628906 172.652344 " fill-opacity="1" fill-rule="nonzero"/></g><g clip-path="url(#55533172a0)"><path fill="#ffffff" d="M 172.628906 637.367188 L 172.628906 606.84375 L 157.859375 606.84375 L 157.859375 652.132812 L 203.152344 652.132812 L 203.152344 637.367188 Z M 172.628906 637.367188 " fill-opacity="1" fill-rule="nonzero"/></g><g clip-path="url(#82b3d0d996)"><path fill="#ffffff" d="M 637.34375 172.652344 L 637.34375 203.175781 L 652.109375 203.175781 L 652.109375 157.882812 L 606.820312 157.882812 L 606.820312 172.652344 Z M 637.34375 172.652344 " fill-opacity="1" fill-rule="nonzero"/></g><g clip-path="url(#69f81eb460)"><path fill="#ffffff" d="M 637.34375 637.367188 L 606.820312 637.367188 L 606.820312 652.132812 L 652.109375 652.132812 L 652.109375 606.84375 L 637.34375 606.84375 Z M 637.34375 637.367188 " fill-opacity="1" fill-rule="nonzero"/></g><g clip-path="url(#337ea8b0c9)"><path fill="#ffffff" d="M 215.988281 296.902344 L 593.988281 296.902344 L 404.988281 624.558594 Z M 576.523438 306.96875 L 233.453125 306.96875 L 404.988281 604.351562 Z M 576.523438 306.96875 " fill-opacity="1" fill-rule="nonzero"/></g></svg>